<?xml version="1.0" standalone="no"?>
<!DOCTYPE svg PUBLIC "-//W3C//DTD SVG 20010904//EN"
 "http://www.w3.org/TR/2001/REC-SVG-20010904/DTD/svg10.dtd">
<svg version="1.0" xmlns="http://www.w3.org/2000/svg"
 width="512.000000pt" height="512.000000pt" viewBox="0 0 512.000000 512.000000"
 preserveAspectRatio="xMidYMid meet">
<metadata>
Created by potrace 1.11, written by Peter Selinger 2001-2013
</metadata>
<g transform="translate(0.000000,512.000000) scale(0.100000,-0.100000)"
fill="#000000" stroke="none">
<path d="M2235 5104 c-460 -62 -856 -224 -1232 -505 -126 -94 -388 -356 -481
-481 -286 -382 -446 -776 -506 -1243 -21 -157 -21 -476 -1 -631 98 -745 483
-1375 1105 -1806 293 -202 640 -341 1025 -409 153 -27 511 -37 678 -19 587 63
1105 306 1526 714 432 420 696 966 761 1573 18 167 8 525 -19 678 -99 562
-347 1036 -742 1421 -407 395 -904 634 -1473 709 -145 19 -499 18 -641 -1z
m-475 -2545 l0 -1602 -112 6 c-148 7 -197 25 -269 96 -55 56 -78 101 -93 189
l-6 32 104 0 c116 0 149 14 193 79 24 36 31 112 13 141 -8 13 -12 11 -30 -8
-46 -49 -69 -54 -250 -50 -153 3 -171 5 -197 24 -100 75 -98 201 6 271 27 18
48 23 97 23 l64 0 0 80 0 80 104 0 c116 0 149 14 193 79 24 36 31 112 13 141
-8 13 -12 11 -30 -8 -46 -49 -69 -54 -250 -50 -153 3 -171 5 -197 24 -100 75
-98 201 6 271 27 18 48 23 97 23 l64 0 0 80 0 80 104 0 c116 0 149 14 193 79
24 36 31 112 13 141 -8 13 -12 11 -30 -8 -46 -49 -69 -54 -250 -50 -153 3
-171 5 -197 24 -100 75 -98 201 6 271 27 18 48 23 97 23 l64 0 0 80 0 80 104
0 c116 0 149 14 193 79 24 36 31 112 13 141 -8 13 -12 11 -30 -8 -46 -49 -69
-54 -250 -50 -153 3 -171 5 -197 24 -100 75 -98 201 6 271 26 18 48 23 96 23
l62 0 6 113 c6 136 24 191 83 256 73 81 148 108 307 110 l87 1 0 -1601z m1875
1577 c67 -26 155 -114 180 -181 18 -46 20 -88 23 -492 l3 -442 25 9 c70 27
145 -1 191 -69 22 -32 23 -44 23 -193 0 -176 -7 -207 -59 -251 -38 -32 -92
-43 -143 -30 l-38 10 0 -607 c0 -364 -4 -628 -10 -660 -14 -76 -48 -136 -102
-185 -94 -84 -41 -79 -935 -83 l-793 -3 0 1601 0 1601 793 -3 c752 -3 795 -4
842 -22z m363 -406 c64 -39 72 -65 72 -250 0 -147 -2 -169 -20 -198 -23 -37
-75 -72 -107 -72 l-23 0 0 254 c0 140 -3 261 -6 270 -9 23 43 21 84 -4z m-3
-1433 c26 -14 48 -38 63 -67 22 -42 23 -55 20 -200 -3 -134 -6 -160 -23 -190
-22 -36 -61 -63 -107 -74 l-28 -6 0 280 c0 315 -4 301 75 257z"/>
</g>
</svg>
