<svg version="1" xmlns="http://www.w3.org/2000/svg" width="682.667" height="682.667" viewBox="0 0 512.000000 512.000000"><path d="M231.5.7c-38.8 4.8-65.9 13-96 28.9C96.9 50 61.2 83.3 38.3 120.5 19.9 150.2 8 182.4 2.5 217 .3 230.9-.6 267.4.9 282.2c8.6 83.5 57.7 157.5 131.6 198.5 24.6 13.6 51.7 23 82 28.4 15.3 2.7 51.1 3.7 67.8 1.9 104.9-11.3 191.5-83.9 220.2-184.5 7.6-26.7 10-46.8 9.2-77.7-.5-23.6-2.2-36.3-7.3-56.2-17.7-69.2-63-127.3-125.9-161.9-27.8-15.3-62.6-26.2-94.7-29.6-9-1-45.4-1.3-52.3-.4zM176 256v160h-10.9c-11.4 0-16.3-1.1-23-5.2-2-1.3-4-2.1-4.6-2-.5.2-.7.1-.3-.3.3-.4-.9-2.7-2.7-5.1-4.8-6.3-6.5-12.8-6.5-25.1V368h-6.1c-6.9 0-12-2.3-15.4-6.8-1.5-2.1-2-4.3-2-9.2 0-10.9 5.5-16 17.4-16h6.1v-32h-6.1c-6.9 0-12-2.3-15.4-6.8-1.5-2.1-2-4.3-2-9.2 0-10.9 5.5-16 17.4-16h6.1v-32h-6.1c-6.9 0-12-2.3-15.4-6.8-1.5-2.1-2-4.3-2-9.2 0-10.9 5.5-16 17.4-16h6.1v-32h-6.1c-6.9 0-12-2.3-15.4-6.8-1.5-2.1-2-4.3-2-9.2 0-10.9 5.5-16 17.4-16h6.1v-10.3c0-11.9 1.6-18.5 5.9-24.4 7-9.7 15.4-13.2 31.4-13.3H176v160zM365.1 98.6c6.6 3.1 12.4 8.7 15.6 15.2 2.2 4.5 2.8 7.3 3.1 14.8l.4 9.2 3-1c4.1-1.4 11.1-.5 14.6 2 5.4 3.9 6.2 7.2 6.2 25.5 0 15.4-.1 16.6-2.3 19.8-4.6 6.9-12.1 9.6-19.1 6.9l-2.6-1v10.1c0 9.4.1 9.9 1.8 9 5.7-3 15.4-.4 19.5 5.3 2 2.9 2.2 4.4 2.5 20.3.4 19.2-.4 22.4-6.1 26.5-3.5 2.5-12.4 3.6-15.6 1.9-2.1-1.2-2.1-1.1-2.1 8.8V282l2.5-1c6.8-2.6 14.7-.3 18.8 5.4 2 2.9 2.2 4.4 2.5 20.6.3 17 .2 17.6-2 21-4.7 7-12.2 9.7-19.2 7l-2.6-1v28c0 33-.6 35.7-9.4 44.6-3.5 3.4-7 5.8-10.9 7.2-5.7 2.2-6.3 2.2-84.7 2.2h-79V96l80.3.2c79.5.3 80.2.3 84.8 2.4z"/></svg>